<?xml version="1.0" standalone="no"?><!DOCTYPE svg PUBLIC "-//W3C//DTD SVG 1.1//EN" "http://www.w3.org/Graphics/SVG/1.1/DTD/svg11.dtd"><svg t="1710301143565" class="icon" viewBox="0 0 1025 1024" version="1.1" xmlns="http://www.w3.org/2000/svg" p-id="17007" xmlns:xlink="http://www.w3.org/1999/xlink" width="13.0126953125" height="13"><path d="M461.801387 37.342692A51.106067 51.106067 0 0 0 410.69532 0.035263H308.483186a51.106067 51.106067 0 0 0-51.106067 37.307429l-255.530335 919.909207a51.106067 51.106067 0 0 0 102.212134 27.597276L219.55863 562.202001h280.061247L615.119589 984.849175a51.106067 51.106067 0 0 0 51.106067 37.307429 51.106067 51.106067 0 0 0 13.798638 0 51.106067 51.106067 0 0 0 35.774247-62.860462zM248.178027 459.989867l99.14577-357.74247h24.530912l99.145771 357.74247zM972.862058 153.353464h-306.636402a51.106067 51.106067 0 0 0 0 102.212134h306.636402a51.106067 51.106067 0 0 0 0-102.212134z" fill="#1296db" p-id="17008"></path></svg>